<?xml version="1.0" standalone="no"?><!DOCTYPE svg PUBLIC "-//W3C//DTD SVG 1.1//EN" "http://www.w3.org/Graphics/SVG/1.1/DTD/svg11.dtd"><svg t="1646276914655" class="icon" viewBox="0 0 1024 1024" version="1.1" xmlns="http://www.w3.org/2000/svg" p-id="6069" xmlns:xlink="http://www.w3.org/1999/xlink" width="60" height="60"><defs><style type="text/css"></style></defs><path d="M281.6 137.813333a128 128 0 0 0-128 128v469.333334a128 128 0 0 0 128 128h213.333333a42.666667 42.666667 0 1 0 0-85.333334h-213.333333a42.666667 42.666667 0 0 1-42.666667-42.666666v-469.333334a42.666667 42.666667 0 0 1 42.666667-42.666666h469.333333a42.666667 42.666667 0 0 1 42.666667 42.666666v213.333334a42.666667 42.666667 0 1 0 85.333333 0v-213.333334a128 128 0 0 0-128-128h-469.333333z m294.613333 380.544l42.154667 365.184a21.333333 21.333333 0 0 0 38.357333 10.24l80.213334-108.629333 114.048 169.941333a42.666667 42.666667 0 1 0 70.826666-47.573333l-114.048-169.941333 124.416-36.693334a21.333333 21.333333 0 0 0 3.498667-39.552l-328.746667-164.522666a21.333333 21.333333 0 0 0-30.72 21.546666z" p-id="6070"></path></svg>